<svg width="41" height="41" viewBox="0 0 41 41" fill="none" xmlns="http://www.w3.org/2000/svg">
<path d="M11.9334 0.333328H28.7334C35.1334 0.333328 40.3334 5.53333 40.3334 11.9333V28.7333C40.3334 31.8098 39.1112 34.7603 36.9358 36.9358C34.7604 39.1112 31.8099 40.3333 28.7334 40.3333H11.9334C5.53337 40.3333 0.333374 35.1333 0.333374 28.7333V11.9333C0.333374 8.85682 1.55551 5.90631 3.73094 3.73089C5.90636 1.55547 8.85686 0.333328 11.9334 0.333328ZM11.5334 4.33333C9.62382 4.33333 7.79247 5.0919 6.44221 6.44216C5.09194 7.79242 4.33337 9.62377 4.33337 11.5333V29.1333C4.33337 33.1133 7.55337 36.3333 11.5334 36.3333H29.1334C31.0429 36.3333 32.8743 35.5748 34.2245 34.2245C35.5748 32.8742 36.3334 31.0429 36.3334 29.1333V11.5333C36.3334 7.55333 33.1134 4.33333 29.1334 4.33333H11.5334ZM30.8334 7.33333C31.4964 7.33333 32.1323 7.59672 32.6011 8.06556C33.07 8.5344 33.3334 9.17029 33.3334 9.83333C33.3334 10.4964 33.07 11.1323 32.6011 11.6011C32.1323 12.0699 31.4964 12.3333 30.8334 12.3333C30.1703 12.3333 29.5344 12.0699 29.0656 11.6011C28.5968 11.1323 28.3334 10.4964 28.3334 9.83333C28.3334 9.17029 28.5968 8.5344 29.0656 8.06556C29.5344 7.59672 30.1703 7.33333 30.8334 7.33333ZM20.3334 10.3333C22.9855 10.3333 25.5291 11.3869 27.4044 13.2623C29.2798 15.1376 30.3334 17.6812 30.3334 20.3333C30.3334 22.9855 29.2798 25.529 27.4044 27.4044C25.5291 29.2798 22.9855 30.3333 20.3334 30.3333C17.6812 30.3333 15.1377 29.2798 13.2623 27.4044C11.3869 25.529 10.3334 22.9855 10.3334 20.3333C10.3334 17.6812 11.3869 15.1376 13.2623 13.2623C15.1377 11.3869 17.6812 10.3333 20.3334 10.3333ZM20.3334 14.3333C18.7421 14.3333 17.216 14.9655 16.0907 16.0907C14.9655 17.2159 14.3334 18.742 14.3334 20.3333C14.3334 21.9246 14.9655 23.4508 16.0907 24.576C17.216 25.7012 18.7421 26.3333 20.3334 26.3333C21.9247 26.3333 23.4508 25.7012 24.576 24.576C25.7012 23.4508 26.3334 21.9246 26.3334 20.3333C26.3334 18.742 25.7012 17.2159 24.576 16.0907C23.4508 14.9655 21.9247 14.3333 20.3334 14.3333Z" fill="#6453A6"/>
</svg>
