<svg width="40" height="33" viewBox="0 0 40 33" fill="none" xmlns="http://www.w3.org/2000/svg">
<path d="M40 3.82409C38.5277 4.49331 36.9407 4.93308 35.2964 5.1434C36.979 4.13002 38.2792 2.5239 38.891 0.592734C37.304 1.54876 35.5449 2.21797 33.6902 2.60038C32.1797 0.956023 30.0574 0 27.6482 0C23.1549 0 19.4837 3.67113 19.4837 8.20268C19.4837 8.85277 19.5602 9.48375 19.6941 10.0765C12.8872 9.73232 6.826 6.46272 2.79159 1.51052C2.08413 2.71511 1.6826 4.13002 1.6826 5.62142C1.6826 8.47036 3.11664 10.9943 5.33461 12.4283C3.97706 12.4283 2.71511 12.0459 1.60612 11.4723V11.5296C1.60612 15.5067 4.43595 18.8337 8.18356 19.5794C6.98036 19.9086 5.7172 19.9544 4.49331 19.7132C5.01263 21.3432 6.02971 22.7694 7.40156 23.7915C8.77342 24.8135 10.4311 25.3799 12.1415 25.4111C9.24212 27.7064 5.64818 28.9471 1.95029 28.9293C1.30019 28.9293 0.650096 28.891 0 28.8145C3.63289 31.1472 7.95411 32.5048 12.5813 32.5048C27.6482 32.5048 35.9273 20 35.9273 9.1587C35.9273 8.79541 35.9273 8.45124 35.9082 8.08795C37.5143 6.94073 38.891 5.48757 40 3.82409Z" fill="#6453A6"/>
</svg>
