<svg width="41" height="29" viewBox="0 0 41 29" fill="none" xmlns="http://www.w3.org/2000/svg">
<path d="M39.6551 5.12119C39.4275 4.27558 38.9818 3.50458 38.3626 2.88536C37.7434 2.26614 36.9724 1.82042 36.1268 1.59281C33.0126 0.75 20.499 0.75 20.499 0.75C20.499 0.75 7.98541 0.75 4.87129 1.59281C4.02568 1.82042 3.25468 2.26614 2.63546 2.88536C2.01624 3.50458 1.57052 4.27558 1.34291 5.12119C0.761435 8.29712 0.479261 11.5206 0.500098 14.7492C0.479261 17.9779 0.761435 21.2014 1.34291 24.3773C1.57052 25.2229 2.01624 25.9939 2.63546 26.6131C3.25468 27.2323 4.02568 27.6781 4.87129 27.9057C7.98541 28.7485 20.499 28.7485 20.499 28.7485C20.499 28.7485 33.0126 28.7485 36.1268 27.9057C36.9724 27.6781 37.7434 27.2323 38.3626 26.6131C38.9818 25.9939 39.4275 25.2229 39.6551 24.3773C40.2366 21.2014 40.5188 17.9779 40.4979 14.7492C40.5188 11.5206 40.2366 8.29712 39.6551 5.12119ZM16.4992 20.7489V8.74957L26.8844 14.7492L16.4992 20.7489Z" fill="#6453A6"/>
</svg>
