<svg width="120" height="120" viewBox="0 0 120 120" fill="none" xmlns="http://www.w3.org/2000/svg">
<circle cx="60" cy="60" r="58" stroke="white" stroke-width="4" stroke-dasharray="8 8"/>
<path d="M69.816 69.392C70.232 69.392 70.552 69.6 70.776 70.016C71.032 70.4 71.16 70.896 71.16 71.504C71.16 72.24 71.048 72.816 70.824 73.232C70.6 73.648 70.248 74.016 69.768 74.336C67.88 75.584 64.872 77.632 60.744 80.48C59.496 87.104 57.88 92.32 55.896 96.128C53.912 99.936 51.4 101.84 48.36 101.84C46.728 101.84 45.4 101.328 44.376 100.304C43.352 99.312 42.84 98 42.84 96.368C42.84 94.864 43.176 93.344 43.848 91.808C44.52 90.272 45.768 88.496 47.592 86.48C49.448 84.464 52.056 82.16 55.416 79.568L55.56 78.656C53.032 79.712 50.552 80.24 48.12 80.24C44.536 80.24 41.384 79.552 38.664 78.176C35.944 76.768 33.832 74.784 32.328 72.224C30.824 69.664 30.072 66.688 30.072 63.296C30.072 58.56 30.968 54.384 32.76 50.768C34.552 47.12 37.016 44.304 40.152 42.32C43.32 40.304 46.856 39.296 50.76 39.296C54.504 39.296 57.304 40.176 59.16 41.936C61.048 43.664 61.992 45.968 61.992 48.848C61.992 50.736 61.64 52.256 60.936 53.408C60.264 54.528 59.288 55.088 58.008 55.088C57.144 55.088 56.44 54.88 55.896 54.464C55.384 54.048 55.128 53.472 55.128 52.736C55.128 52.416 55.192 51.872 55.32 51.104C55.512 50.208 55.608 49.504 55.608 48.992C55.608 47.648 55.192 46.608 54.36 45.872C53.56 45.136 52.2 44.768 50.28 44.768C47.944 44.768 45.768 45.44 43.752 46.784C41.768 48.128 40.168 50.144 38.952 52.832C37.736 55.488 37.128 58.688 37.128 62.432C37.128 66.272 38.168 69.248 40.248 71.36C42.36 73.44 45.4 74.48 49.368 74.48C51.576 74.48 53.88 73.984 56.28 72.992L56.952 67.136H52.056C51.16 67.136 50.472 66.928 49.992 66.512C49.512 66.064 49.272 65.344 49.272 64.352C49.272 63.456 49.512 62.752 49.992 62.24C50.472 61.728 51.112 61.472 51.912 61.472H60.888C61.592 61.472 62.168 61.712 62.616 62.192C63.096 62.64 63.288 63.296 63.192 64.16C63.096 65.184 62.776 67.504 62.232 71.12L61.704 74.768C64.264 72.848 66.6 71.184 68.712 69.776C69.128 69.52 69.496 69.392 69.816 69.392ZM48.888 97.184C49.72 97.184 50.632 96.24 51.624 94.352C52.616 92.464 53.544 89.424 54.408 85.232C51.976 87.312 50.216 89.184 49.128 90.848C48.072 92.544 47.544 94.032 47.544 95.312C47.544 96.56 47.992 97.184 48.888 97.184ZM90.8183 46.304V52.88H77.0903V59.984H87.3623V66.368H77.0903V80H68.8823V46.304H90.8183Z" fill="white"/>
</svg>
